<svg width="25" height="23" viewBox="0 0 25 23" fill="none" xmlns="http://www.w3.org/2000/svg">
<path id="Vector" d="M19.667 0.0250549H4.66699C2.18599 0.0250549 0.166992 2.04405 0.166992 4.52505V17.5251C0.166992 20.0061 2.18599 22.0251 4.66699 22.0251H19.667C22.148 22.0251 24.167 20.0061 24.167 17.5251V4.52505C24.167 2.04405 22.148 0.0250549 19.667 0.0250549ZM23.167 17.5251C23.167 19.4551 21.597 21.0251 19.667 21.0251H4.66699C2.73699 21.0251 1.16699 19.4551 1.16699 17.5251V4.52505C1.16699 2.59506 2.73699 1.02505 4.66699 1.02505H19.667C21.597 1.02505 23.167 2.59506 23.167 4.52505V17.5251ZM20.167 5.52505C20.167 5.80105 19.943 6.02505 19.667 6.02505H9.66699C9.39099 6.02505 9.16699 5.80105 9.16699 5.52505C9.16699 5.24905 9.39099 5.02505 9.66699 5.02505H19.667C19.943 5.02505 20.167 5.24905 20.167 5.52505ZM6.16699 5.52505C6.16699 6.07705 5.71899 6.52505 5.16699 6.52505C4.61499 6.52505 4.16699 6.07705 4.16699 5.52505C4.16699 4.97305 4.61499 4.52505 5.16699 4.52505C5.71899 4.52505 6.16699 4.97305 6.16699 5.52505ZM20.167 11.0251C20.167 11.3011 19.943 11.5251 19.667 11.5251H9.66699C9.39099 11.5251 9.16699 11.3011 9.16699 11.0251C9.16699 10.7491 9.39099 10.5251 9.66699 10.5251H19.667C19.943 10.5251 20.167 10.7491 20.167 11.0251ZM6.16699 11.0251C6.16699 11.5771 5.71899 12.0251 5.16699 12.0251C4.61499 12.0251 4.16699 11.5771 4.16699 11.0251C4.16699 10.4731 4.61499 10.0251 5.16699 10.0251C5.71899 10.0251 6.16699 10.4731 6.16699 11.0251ZM20.167 16.5251C20.167 16.8011 19.943 17.0251 19.667 17.0251H9.66699C9.39099 17.0251 9.16699 16.8011 9.16699 16.5251C9.16699 16.2491 9.39099 16.0251 9.66699 16.0251H19.667C19.943 16.0251 20.167 16.2491 20.167 16.5251ZM6.16699 16.5251C6.16699 17.0771 5.71899 17.5251 5.16699 17.5251C4.61499 17.5251 4.16699 17.0771 4.16699 16.5251C4.16699 15.9731 4.61499 15.5251 5.16699 15.5251C5.71899 15.5251 6.16699 15.9731 6.16699 16.5251Z" fill="black"/>
</svg>
