<svg width="24" height="22" viewBox="0 0 24 22" fill="none" xmlns="http://www.w3.org/2000/svg">
<g id="category-alt 1" clip-path="url(#clip0_2035_230)">
<path id="Vector" d="M21.5 0H2.5C1.121 0 0 1.0285 0 2.29167V22H24V2.29167C24 1.0285 22.879 0 21.5 0ZM23 21.0833H1V2.29167C1 1.53358 1.673 0.916667 2.5 0.916667H21.5C22.327 0.916667 23 1.53358 23 2.29167V21.0833ZM3 10.0833H11V2.75H3V10.0833ZM4 3.66667H10V9.16667H4V3.66667ZM13 10.0833H21V2.75H13V10.0833ZM14 3.66667H20V9.16667H14V3.66667ZM3 19.25H11V11.9167H3V19.25ZM4 12.8333H10V18.3333H4V12.8333ZM13 19.25H21V11.9167H13V19.25ZM14 12.8333H20V18.3333H14V12.8333Z" fill="white"/>
</g>
<defs>
<clipPath id="clip0_2035_230">
<rect width="24" height="22" fill="white"/>
</clipPath>
</defs>
</svg>
